<svg width="144" height="144" viewBox="0 0 144 144" fill="none" xmlns="http://www.w3.org/2000/svg">
<mask id="mask0_93_49" style="mask-type:luminance" maskUnits="userSpaceOnUse" x="0" y="0" width="144" height="144">
<path d="M0 0H144V144H0V0Z" fill="white"/>
<path fill-rule="evenodd" clip-rule="evenodd" d="M99.8419 56.6704C100.97 55.7307 102.425 55.2775 103.888 55.4105C105.35 55.5434 106.7 56.2516 107.64 57.3793L119.177 71.2255C120.075 72.3581 120.495 73.7973 120.347 75.2355C120.199 76.6738 119.494 77.9971 118.384 78.9227C117.273 79.8483 115.844 80.3029 114.403 80.1893C112.961 80.0757 111.622 79.4029 110.67 78.3147L99.1274 64.4685C98.1877 63.3403 97.7346 61.885 97.8675 60.4227C98.0004 58.9604 98.7086 57.6107 99.8363 56.6704" fill="black"/>
<path fill-rule="evenodd" clip-rule="evenodd" d="M99.8419 92.8692C98.7133 91.9296 98.0041 90.5804 97.8701 89.118C97.7361 87.6557 98.1884 86.2 99.1274 85.071L110.67 71.2249C111.129 70.6463 111.699 70.1655 112.346 69.8105C112.994 69.4556 113.706 69.2338 114.441 69.1581C115.175 69.0824 115.918 69.1544 116.624 69.3698C117.33 69.5853 117.986 69.9398 118.554 70.4126C119.121 70.8854 119.588 71.4669 119.928 72.1228C120.267 72.7788 120.472 73.4959 120.53 74.2322C120.588 74.9684 120.498 75.7088 120.265 76.4098C120.033 77.1108 119.663 77.7583 119.177 78.3141L107.64 92.1602C106.7 93.288 105.35 93.9962 103.888 94.1291C102.425 94.262 100.97 93.8089 99.8419 92.8692Z" fill="black"/>
<path fill-rule="evenodd" clip-rule="evenodd" d="M113.538 74.7696C113.538 76.2385 112.955 77.6472 111.916 78.6859C110.878 79.7246 109.469 80.3081 108 80.3081H72C70.5311 80.3081 69.1224 79.7246 68.0837 78.6859C67.0451 77.6472 66.4615 76.2385 66.4615 74.7696C66.4615 73.3007 67.0451 71.892 68.0837 70.8533C69.1224 69.8147 70.5311 69.2311 72 69.2311H108C109.469 69.2311 110.878 69.8147 111.916 70.8533C112.955 71.892 113.538 73.3007 113.538 74.7696ZM33.2308 36.0004C33.2308 34.5315 33.8143 33.1228 34.853 32.0841C35.8916 31.0454 37.3003 30.4619 38.7692 30.4619H88.6154C90.0843 30.4619 91.493 31.0454 92.5317 32.0841C93.5703 33.1228 94.1539 34.5315 94.1539 36.0004C94.1539 37.4693 93.5703 38.878 92.5317 39.9167C91.493 40.9553 90.0843 41.5388 88.6154 41.5388H38.7692C37.3003 41.5388 35.8916 40.9553 34.853 39.9167C33.8143 38.878 33.2308 37.4693 33.2308 36.0004ZM33.2308 113.539C33.2308 112.07 33.8143 110.661 34.853 109.623C35.8916 108.584 37.3003 108 38.7692 108H88.6154C90.0843 108 91.493 108.584 92.5317 109.623C93.5703 110.661 94.1539 112.07 94.1539 113.539C94.1539 115.008 93.5703 116.416 92.5317 117.455C91.493 118.494 90.0843 119.077 88.6154 119.077H38.7692C37.3003 119.077 35.8916 118.494 34.853 117.455C33.8143 116.416 33.2308 115.008 33.2308 113.539Z" fill="black"/>
<path fill-rule="evenodd" clip-rule="evenodd" d="M88.6154 30.4619C90.0843 30.4619 91.493 31.0454 92.5317 32.0841C93.5703 33.1228 94.1538 34.5315 94.1538 36.0004V58.1542C94.1538 59.6231 93.5703 61.0318 92.5317 62.0705C91.493 63.1092 90.0843 63.6927 88.6154 63.6927C87.1465 63.6927 85.7378 63.1092 84.6991 62.0705C83.6604 61.0318 83.0769 59.6231 83.0769 58.1542V36.0004C83.0769 34.5315 83.6604 33.1228 84.6991 32.0841C85.7378 31.0454 87.1465 30.4619 88.6154 30.4619ZM88.6154 85.8465C90.0843 85.8465 91.493 86.43 92.5317 87.4687C93.5703 88.5074 94.1538 89.9161 94.1538 91.385V113.539C94.1538 115.008 93.5703 116.416 92.5317 117.455C91.493 118.494 90.0843 119.077 88.6154 119.077C87.1465 119.077 85.7378 118.494 84.6991 117.455C83.6604 116.416 83.0769 115.008 83.0769 113.539V91.385C83.0769 89.9161 83.6604 88.5074 84.6991 87.4687C85.7378 86.43 87.1465 85.8465 88.6154 85.8465ZM38.7692 30.4619C40.2381 30.4619 41.6469 31.0454 42.6855 32.0841C43.7242 33.1228 44.3077 34.5315 44.3077 36.0004V113.539C44.3077 115.008 43.7242 116.416 42.6855 117.455C41.6469 118.494 40.2381 119.077 38.7692 119.077C37.3003 119.077 35.8916 118.494 34.853 117.455C33.8143 116.416 33.2308 115.008 33.2308 113.539V36.0004C33.2308 34.5315 33.8143 33.1228 34.853 32.0841C35.8916 31.0454 37.3003 30.4619 38.7692 30.4619Z" fill="black"/>
</mask>
<g mask="url(#mask0_93_49)">
<path d="M72 144C111.765 144 144 111.765 144 72C144 32.2355 111.765 0 72 0C32.2355 0 0 32.2355 0 72C0 111.765 32.2355 144 72 144Z" fill="#B6272B"/>
</g>
</svg>
