<svg width="144" height="144" viewBox="0 0 144 144" fill="none" xmlns="http://www.w3.org/2000/svg">
<path d="M72 0C32.256 0 0 32.256 0 72C0 111.744 32.256 144 72 144C111.744 144 144 111.744 144 72C144 32.256 111.744 0 72 0ZM115.2 77.328C114.336 99.576 95.976 117.936 73.728 118.8C63.4534 119.212 53.3692 115.943 45.291 109.581C37.2127 103.218 31.6711 94.1811 29.664 84.096C28.728 79.704 32.256 75.6 36.72 75.6C40.104 75.6 43.056 77.976 43.776 81.36C44.5291 85.0681 46.006 88.5914 48.1223 91.728C50.2386 94.8647 52.9527 97.5533 56.1093 99.6398C59.2658 101.726 62.8029 103.17 66.518 103.888C70.2331 104.606 74.0533 104.584 77.76 103.824C88.992 101.664 98.064 92.592 100.224 81.36C101.078 77.1751 100.991 72.8527 99.9685 68.7057C98.9461 64.5588 97.014 60.6911 94.3124 57.383C91.6108 54.0749 88.2071 51.409 84.3481 49.5787C80.489 47.7483 76.2711 46.7991 72 46.8V59.688C72 62.928 68.112 64.512 65.88 62.208L45.72 42.12C44.28 40.68 44.28 38.448 45.72 37.008L65.808 16.92C68.112 14.688 72 16.272 72 19.512V32.4C77.8186 32.4054 83.5763 33.5843 88.9288 35.866C94.2813 38.1478 99.1187 41.4856 103.152 45.6798C107.184 49.874 110.33 54.8385 112.4 60.2763C114.47 65.7142 115.423 71.5137 115.2 77.328Z" fill="#B6272B"/>
</svg>
